<svg version="1.1" id="Layer_1" xmlns="http://www.w3.org/2000/svg" xmlns:xlink="http://www.w3.org/1999/xlink" x="0px" y="0px"
	 width="100%" viewBox="0 0 1024 1024" enable-background="new 0 0 1024 1024" xml:space="preserve">
<path fill="#000000" opacity="1.000000" stroke="none" 
	d="
M479.000000,1025.000000 
	C319.333344,1025.000000 160.166672,1025.000000 1.000000,1025.000000 
	C1.000000,683.666687 1.000000,342.333344 1.000000,1.000000 
	C342.333344,1.000000 683.666687,1.000000 1025.000000,1.000000 
	C1025.000000,342.333344 1025.000000,683.666687 1025.000000,1025.000000 
	C843.166687,1025.000000 661.333313,1025.000000 479.000000,1025.000000 
M915.289001,470.937866 
	C915.225464,471.121796 915.161926,471.305756 915.098389,471.489685 
	C915.321960,471.224152 915.545471,470.958588 915.143555,470.763397 
	C914.701233,470.330048 914.258911,469.896698 913.388245,468.931183 
	C909.507263,465.551056 905.775879,461.978760 901.720764,458.822296 
	C877.428833,439.913696 849.141296,429.587799 819.796143,422.221436 
	C803.046997,418.016968 785.823364,415.504517 768.693848,413.071472 
	C752.610474,410.787018 736.366333,409.643158 720.199829,407.932251 
	C709.815308,406.833252 699.167297,406.710175 689.134827,404.178345 
	C676.306396,400.940857 663.843506,396.067719 651.466125,391.272400 
	C631.266541,383.446564 611.436218,374.647003 591.129211,367.124451 
	C570.409485,359.448975 548.661621,355.848694 526.639160,355.110443 
	C505.362549,354.397278 484.029572,354.317139 462.753265,354.981384 
	C446.004974,355.504272 429.287354,357.398804 412.589233,359.024414 
	C397.414825,360.501648 382.240021,362.118988 367.147217,364.253326 
	C348.823212,366.844574 330.572449,369.966919 312.312958,372.997620 
	C290.162842,376.674072 268.021912,380.410400 245.904114,384.276001 
	C222.179291,388.422394 198.465454,392.638641 174.787949,397.045410 
	C163.632233,399.121674 152.566040,401.683990 141.473511,404.091644 
	C137.953201,404.855713 136.186768,406.702362 136.922348,410.756104 
	C139.975555,427.582275 142.814682,444.447296 145.732391,461.298065 
	C145.912262,461.230164 146.092133,461.162262 146.272018,461.094360 
	C148.387512,447.493286 150.503006,433.892242 152.613495,420.323425 
	C149.171112,417.245667 141.963669,417.890137 141.746292,409.562561 
	C159.901413,408.286163 177.587433,406.909393 195.291367,405.825165 
	C234.955490,403.396118 274.484497,406.396973 314.007629,409.138672 
	C334.726532,410.575928 355.396698,413.015045 376.134583,413.810852 
	C409.420349,415.088135 442.744354,415.362976 476.051575,416.089966 
	C493.038605,416.460693 510.027496,416.791443 527.009949,417.319092 
	C564.797119,418.493103 602.581848,419.747192 640.365417,421.033020 
	C661.836426,421.763702 683.322449,422.283417 704.766846,423.508270 
	C730.983948,425.005737 757.163574,427.156647 783.361206,428.998047 
	C802.607849,430.350861 819.995911,436.825623 835.369995,448.382233 
	C843.150024,454.230469 849.116577,461.748077 852.801270,470.891693 
	C853.350464,472.254364 853.741211,473.680878 854.205261,475.077850 
	C854.427734,461.733185 848.774170,451.065979 839.269714,442.037354 
	C847.194641,443.986115 854.912170,445.792084 862.177490,448.719971 
	C879.189636,455.575806 895.984985,462.969391 913.351440,470.883820 
	C914.160461,470.820679 914.969421,470.757538 915.289001,470.937866 
M260.983856,506.500000 
	C260.983856,520.907166 260.983856,535.314331 260.983856,549.700073 
	C268.488373,549.700073 275.886322,549.700073 283.213287,549.700073 
	C283.213287,515.338135 283.213287,481.277771 283.213287,447.036621 
	C279.420929,447.036621 275.928467,446.982697 272.438202,447.048340 
	C266.001099,447.169403 258.144989,445.162140 253.530121,448.143555 
	C248.953979,451.099915 247.631195,459.105560 244.903519,464.907013 
	C238.167511,479.233673 231.444061,493.566223 224.462860,508.434631 
	C215.457291,488.899841 206.752396,469.954529 197.953979,451.052765 
	C197.260056,449.562012 195.950912,447.254761 194.867981,447.220612 
	C185.294662,446.918793 175.707840,447.045380 166.328766,447.045380 
	C166.328766,481.747406 166.328766,515.804626 166.328766,549.831299 
	C173.781158,549.831299 180.903046,549.831299 187.883377,549.831299 
	C187.883377,527.471375 187.883377,505.283600 187.883377,482.055573 
	C189.116409,484.073456 190.114807,485.420258 190.820145,486.906189 
	C197.589233,501.166962 205.056671,515.159302 210.783524,529.829895 
	C214.696136,539.852905 220.180557,544.356079 230.767410,541.970642 
	C231.082291,541.899719 231.388885,541.792053 231.656250,541.714050 
	C236.461136,531.781067 241.241394,521.873779 246.044174,511.977448 
	C250.855392,502.063629 255.689087,492.160706 260.985535,481.282288 
	C260.985535,490.177887 260.985535,497.838959 260.983856,506.500000 
M794.528870,549.035095 
	C829.044312,539.987549 841.468689,504.606842 828.265076,474.968353 
	C817.102966,449.912598 789.814819,442.180969 763.932373,446.540314 
	C741.940491,450.244385 723.006775,466.534821 721.482056,494.144257 
	C720.497009,511.980286 725.869568,527.540344 740.204956,539.010742 
	C756.166260,551.782166 774.433838,553.409363 794.528870,549.035095 
M595.970215,475.500000 
	C595.970215,500.250336 595.970215,525.000671 595.970215,549.739380 
	C604.114624,549.739380 611.708801,549.739380 619.507935,549.739380 
	C619.507935,537.886414 619.507935,526.295654 619.507935,514.320862 
	C622.421265,514.320862 625.094666,514.616821 627.675476,514.254028 
	C631.929077,513.656128 634.169678,515.515015 636.300415,519.067444 
	C641.986877,528.548096 648.080078,537.788452 654.175781,547.015869 
	C655.037903,548.320984 656.787842,549.819397 658.175049,549.868591 
	C665.927551,550.143860 673.694946,550.001038 682.099854,550.001038 
	C672.912048,536.763367 664.102173,524.070068 655.221558,511.274994 
	C656.799561,510.481934 658.270569,509.750580 659.734680,509.005524 
	C672.737793,502.388336 678.805725,490.298950 676.965088,474.682678 
	C675.504395,462.289551 666.029419,451.533508 652.677979,449.205627 
	C642.946106,447.508881 632.895264,447.460999 622.971252,447.101929 
	C614.051575,446.779144 605.111084,447.033875 595.970154,447.033875 
	C595.970154,456.555847 595.970154,465.527924 595.970215,475.500000 
M380.500000,447.032501 
	C366.707245,447.032501 352.914459,447.032501 339.016815,447.032501 
	C339.016815,481.510834 339.016815,515.571106 339.016815,549.649170 
	C363.784058,549.649170 388.323792,549.649170 412.610474,549.649170 
	C412.610474,542.883301 412.610474,536.473022 412.610474,529.671326 
	C395.530334,529.671326 378.791718,529.671326 362.199860,529.671326 
	C362.199860,522.304260 362.199860,515.349976 362.199860,507.844055 
	C376.926605,507.844055 391.466431,507.844055 405.817474,507.844055 
	C405.817474,501.340851 405.817474,495.396606 405.817474,489.125366 
	C391.168793,489.125366 376.764282,489.125366 362.328094,489.125366 
	C362.328094,481.564850 362.328094,474.346466 362.328094,466.745056 
	C378.897919,466.745056 395.144409,466.745056 411.321655,466.745056 
	C411.321655,459.959167 411.321655,453.570374 411.321655,447.032288 
	C401.154327,447.032288 391.327179,447.032288 380.500000,447.032501 
M288.500000,588.000122 
	C363.918701,588.000122 439.337372,588.000122 514.797241,588.000122 
	C514.797241,584.035522 514.797241,580.607422 514.797241,576.990295 
	C398.541168,576.990295 282.492462,576.990295 166.295959,576.990295 
	C166.295959,580.706055 166.295959,584.249939 166.295959,588.000000 
	C206.893753,588.000000 247.196884,588.000000 288.500000,588.000122 
M460.226013,453.607544 
	C460.226013,457.901367 460.226013,462.195160 460.226013,466.999939 
	C470.976135,466.999939 481.359558,466.999939 492.109528,466.999939 
	C492.109528,494.914001 492.109528,522.308289 492.109528,549.763489 
	C499.899872,549.763489 507.305084,549.763489 515.077515,549.763489 
	C515.077515,522.133667 515.077515,494.738251 515.077515,466.942261 
	C525.510376,466.942261 535.581421,466.942261 545.746765,466.942261 
	C545.746765,460.137939 545.746765,453.740387 545.746765,447.369690 
	C517.134949,447.369690 488.771698,447.369690 460.225800,447.369690 
	C460.225800,449.355774 460.225800,451.001617 460.226013,453.607544 
M689.977234,579.151611 
	C682.784973,583.969604 682.237488,588.243225 687.741760,596.601746 
	C680.822876,602.725647 679.320984,607.945190 682.944031,613.275818 
	C686.901978,619.099548 696.703613,619.913940 703.375549,616.078857 
	C708.366577,617.029236 711.880676,617.698303 715.394775,618.367432 
	C715.725769,618.044983 716.056824,617.722534 716.387817,617.400085 
	C710.318542,612.921692 708.487854,607.712097 713.406189,601.700745 
	C711.023926,600.665710 709.253662,599.896545 707.479126,599.125488 
	C706.801758,600.855530 706.164429,602.483398 705.591492,603.946777 
	C703.172546,601.614197 700.846069,599.370850 699.116211,597.702759 
	C700.975769,594.969604 703.882812,592.289368 704.783142,589.051147 
	C706.831970,581.682068 699.824829,576.870728 689.977234,579.151611 
M564.087097,583.448242 
	C561.822937,581.986206 559.661743,579.503479 557.274414,579.262695 
	C551.265137,578.656677 545.153809,579.062195 539.274292,579.062195 
	C539.274292,592.299927 539.274292,604.994995 539.274292,618.277527 
	C545.520264,617.849854 551.473877,617.790955 557.312866,616.943115 
	C563.030273,616.112915 566.385193,612.654053 566.747314,607.739014 
	C567.114807,602.751160 565.114502,598.924011 559.784546,597.443726 
	C565.775330,592.360596 566.169922,591.206604 564.087097,583.448242 
M631.449097,576.964172 
	C630.033936,576.964172 628.618774,576.964172 626.992493,576.964172 
	C626.992493,579.986694 626.992493,582.458191 626.992493,584.929626 
	C626.992493,587.296814 626.992493,589.664062 626.992493,592.435913 
	C619.995178,588.165710 613.353088,588.707092 609.280151,593.364563 
	C604.764099,598.528748 604.767029,609.145081 609.286133,614.604553 
	C613.176758,619.304688 619.910950,619.422546 625.960693,615.679688 
	C628.949768,616.838562 631.106140,617.674500 634.005981,618.798767 
	C634.005981,604.665649 634.028137,591.743286 633.938049,578.821716 
	C633.933655,578.199707 632.939697,577.584717 631.449097,576.964172 
M825.815369,614.613647 
	C831.635315,620.400513 837.639587,618.820923 843.655273,614.736755 
	C844.370361,620.118225 847.622986,617.477234 849.849731,617.587830 
	C849.849731,603.820374 849.849731,590.439941 849.849731,577.230103 
	C847.436646,577.230103 845.350403,577.230103 842.995483,577.230103 
	C842.995483,582.221985 842.995483,586.970764 842.995483,591.836792 
	C833.938782,587.692261 827.408752,589.259033 823.913086,596.318726 
	C820.863403,602.477722 821.460205,608.409790 825.815369,614.613647 
M572.892273,609.284119 
	C575.697876,615.920166 579.980469,618.654907 587.124695,618.372253 
	C593.706116,618.111938 598.087952,615.087280 600.019470,609.471680 
	C602.287659,602.877258 600.713989,596.398804 595.852539,592.317200 
	C591.267029,588.467285 583.885986,587.945862 578.632019,591.100647 
	C573.102051,594.421204 571.044312,600.314636 572.892273,609.284119 
M657.378723,615.908325 
	C660.635254,607.415344 663.891724,598.922302 667.121338,590.499451 
	C661.634155,588.799927 658.873779,590.404602 657.819641,595.888489 
	C657.055481,599.864319 655.094543,603.610046 653.458191,608.021790 
	C651.945007,603.816040 650.167175,600.360474 649.506836,596.703125 
	C648.424072,590.705688 645.406982,588.566101 639.500183,590.402039 
	C641.986938,597.319092 644.519104,604.387939 647.069702,611.450134 
	C649.728088,618.811096 648.996277,620.625854 641.886719,623.880554 
	C642.054016,625.435242 642.226807,627.041321 642.473755,629.336182 
	C644.916443,628.840515 647.703064,629.119934 648.821533,627.886597 
	C651.928528,624.460449 654.341919,620.405273 657.378723,615.908325 
M803.336670,589.734741 
	C801.310974,590.658447 799.285278,591.582092 797.294922,592.489685 
	C796.577454,587.125854 792.893555,591.245850 790.888306,590.087830 
	C790.888306,599.540710 790.888306,608.594910 790.888306,617.608154 
	C793.365601,617.608154 795.451050,617.608154 797.955994,617.608154 
	C797.955994,612.395081 798.024780,607.444519 797.934998,602.496765 
	C797.858521,598.274841 799.631470,595.841980 804.015747,595.850403 
	C808.329102,595.858643 809.009521,598.802979 808.995483,602.261597 
	C808.974731,607.368164 808.990112,612.474854 808.990112,617.675537 
	C811.527893,617.675537 813.586731,617.675537 816.007935,617.675537 
	C816.007935,611.514343 816.106445,605.564148 815.983154,599.618530 
	C815.826538,592.067749 811.868958,588.757080 803.336670,589.734741 
M773.883362,589.283813 
	C765.397644,588.786682 760.067627,592.074890 758.193665,598.963196 
	C756.282654,605.987732 759.113220,613.688965 764.755188,616.815369 
	C770.438904,619.964905 778.236633,618.359741 783.163635,612.855957 
	C781.976746,611.578735 780.771973,610.282166 779.544434,608.961243 
	C776.587769,612.295471 773.048035,613.823364 769.246826,611.823853 
	C767.148315,610.720093 765.832336,608.128723 764.163513,606.208008 
	C764.505920,605.761475 764.848328,605.314941 765.190735,604.868408 
	C771.431335,604.868408 777.671997,604.868408 783.875732,604.868408 
	C784.193665,595.797852 781.646790,591.725586 773.883362,589.283813 
M866.741699,611.133850 
	C865.670654,609.329285 864.599609,607.524719 863.026489,604.874207 
	C870.515076,604.874207 876.619202,604.874207 882.681824,604.874207 
	C883.449646,596.115601 880.438110,591.290039 873.346008,589.505798 
	C866.792114,587.856812 860.604980,590.935120 857.957275,597.162048 
	C855.012573,604.087341 857.477234,612.949524 863.363708,616.602112 
	C868.868896,620.018066 877.219482,618.427917 882.259460,612.821167 
	C881.062561,611.559021 879.848450,610.278748 878.546753,608.906128 
	C875.386841,612.734375 871.672119,613.568726 866.741699,611.133850 
M732.712036,579.001770 
	C732.141296,579.597900 731.077332,580.190125 731.072632,580.790771 
	C730.975708,593.052734 730.999817,605.315613 730.999817,617.666260 
	C733.562073,617.666260 735.624207,617.666260 738.065125,617.666260 
	C738.065125,612.390564 738.065125,607.301514 738.065125,601.874512 
	C742.857605,601.874512 747.279053,601.874512 751.767395,601.874512 
	C751.767395,599.606445 751.767395,597.704773 751.767395,595.483643 
	C747.130615,595.483643 742.718567,595.483643 738.291992,595.483643 
	C738.291992,591.910950 738.291992,588.668274 738.291992,584.997314 
	C743.643555,584.997314 748.719116,584.997314 753.774536,584.997314 
	C753.774536,582.809326 753.774536,581.063354 753.774536,578.998413 
	C746.927185,578.998413 740.303101,578.998413 732.712036,579.001770 
M896.009827,614.291382 
	C896.009705,611.798279 896.009583,609.305176 896.009521,606.812073 
	C896.009338,598.721313 897.030518,597.384644 904.694092,595.306274 
	C904.694092,593.204651 904.694092,591.155212 904.694092,588.337585 
	C901.391357,589.943665 898.651245,591.276184 895.964966,592.582520 
	C895.913086,591.945984 895.846436,591.128174 895.765808,590.139343 
	C893.653076,590.139343 891.544678,590.139343 889.324707,590.139343 
	C889.324707,599.405212 889.324707,608.598938 889.324707,618.511353 
	C891.585388,616.461060 895.761230,620.737244 896.009827,614.291382 
z"/>
<path fill="#FBFBFB" opacity="1.000000" stroke="none" 
	d="
M912.868103,470.145264 
	C895.984985,462.969391 879.189636,455.575806 862.177490,448.719971 
	C854.912170,445.792084 847.194641,443.986115 839.269714,442.037354 
	C848.774170,451.065979 854.427734,461.733185 854.205261,475.077850 
	C853.741211,473.680878 853.350464,472.254364 852.801270,470.891693 
	C849.116577,461.748077 843.150024,454.230469 835.369995,448.382233 
	C819.995911,436.825623 802.607849,430.350861 783.361206,428.998047 
	C757.163574,427.156647 730.983948,425.005737 704.766846,423.508270 
	C683.322449,422.283417 661.836426,421.763702 640.365417,421.033020 
	C602.581848,419.747192 564.797119,418.493103 527.009949,417.319092 
	C510.027496,416.791443 493.038605,416.460693 476.051575,416.089966 
	C442.744354,415.362976 409.420349,415.088135 376.134583,413.810852 
	C355.396698,413.015045 334.726532,410.575928 314.007629,409.138672 
	C274.484497,406.396973 234.955490,403.396118 195.291367,405.825165 
	C177.587433,406.909393 159.901413,408.286163 141.746292,409.562561 
	C141.963669,417.890137 149.171112,417.245667 152.613495,420.323425 
	C150.503006,433.892242 148.387512,447.493286 146.272018,461.094360 
	C146.092133,461.162262 145.912262,461.230164 145.732391,461.298065 
	C142.814682,444.447296 139.975555,427.582275 136.922348,410.756104 
	C136.186768,406.702362 137.953201,404.855713 141.473511,404.091644 
	C152.566040,401.683990 163.632233,399.121674 174.787949,397.045410 
	C198.465454,392.638641 222.179291,388.422394 245.904114,384.276001 
	C268.021912,380.410400 290.162842,376.674072 312.312958,372.997620 
	C330.572449,369.966919 348.823212,366.844574 367.147217,364.253326 
	C382.240021,362.118988 397.414825,360.501648 412.589233,359.024414 
	C429.287354,357.398804 446.004974,355.504272 462.753265,354.981384 
	C484.029572,354.317139 505.362549,354.397278 526.639160,355.110443 
	C548.661621,355.848694 570.409485,359.448975 591.129211,367.124451 
	C611.436218,374.647003 631.266541,383.446564 651.466125,391.272400 
	C663.843506,396.067719 676.306396,400.940857 689.134827,404.178345 
	C699.167297,406.710175 709.815308,406.833252 720.199829,407.932251 
	C736.366333,409.643158 752.610474,410.787018 768.693848,413.071472 
	C785.823364,415.504517 803.046997,418.016968 819.796143,422.221436 
	C849.141296,429.587799 877.428833,439.913696 901.720764,458.822296 
	C905.775879,461.978760 909.507263,465.551056 913.357117,469.356384 
	C913.173340,469.902802 913.020752,470.024017 912.868103,470.145264 
M436.147186,365.673004 
	C422.284576,367.111786 408.377258,368.216614 394.569427,370.064636 
	C371.623016,373.135834 348.730713,376.621155 325.850342,380.156769 
	C324.107574,380.426056 321.485748,382.337463 321.319092,383.730438 
	C321.078491,385.741211 322.481110,388.113861 323.641754,390.057983 
	C324.229736,391.042847 325.789520,391.498230 326.969025,392.071442 
	C340.449402,398.622772 354.856659,402.404022 369.598389,403.795319 
	C391.278076,405.841400 413.064331,406.957489 434.830750,407.841827 
	C474.437592,409.451019 514.056213,410.880341 553.682800,411.861572 
	C595.318237,412.892517 636.968872,413.311981 678.613037,413.983643 
	C679.574463,413.999146 680.538696,413.835938 682.371521,413.683960 
	C667.324646,407.312378 653.234436,401.456543 639.233032,395.395538 
	C602.565979,379.523010 565.688293,364.983459 524.840576,363.546600 
	C495.492401,362.514252 466.277863,363.055542 436.147186,365.673004 
z"/>
<path fill="#FEFEFE" opacity="1.000000" stroke="none" 
	d="
M260.984680,506.000000 
	C260.985535,497.838959 260.985535,490.177887 260.985535,481.282288 
	C255.689087,492.160706 250.855392,502.063629 246.044174,511.977448 
	C241.241394,521.873779 236.461136,531.781067 231.656250,541.714050 
	C231.388885,541.792053 231.082291,541.899719 230.767410,541.970642 
	C220.180557,544.356079 214.696136,539.852905 210.783524,529.829895 
	C205.056671,515.159302 197.589233,501.166962 190.820145,486.906189 
	C190.114807,485.420258 189.116409,484.073456 187.883377,482.055573 
	C187.883377,505.283600 187.883377,527.471375 187.883377,549.831299 
	C180.903046,549.831299 173.781158,549.831299 166.328766,549.831299 
	C166.328766,515.804626 166.328766,481.747406 166.328766,447.045380 
	C175.707840,447.045380 185.294662,446.918793 194.867981,447.220612 
	C195.950912,447.254761 197.260056,449.562012 197.953979,451.052765 
	C206.752396,469.954529 215.457291,488.899841 224.462860,508.434631 
	C231.444061,493.566223 238.167511,479.233673 244.903519,464.907013 
	C247.631195,459.105560 248.953979,451.099915 253.530121,448.143555 
	C258.144989,445.162140 266.001099,447.169403 272.438202,447.048340 
	C275.928467,446.982697 279.420929,447.036621 283.213287,447.036621 
	C283.213287,481.277771 283.213287,515.338135 283.213287,549.700073 
	C275.886322,549.700073 268.488373,549.700073 260.983856,549.700073 
	C260.983856,535.314331 260.983856,520.907166 260.984680,506.000000 
z"/>
<path fill="#FDFDFD" opacity="1.000000" stroke="none" 
	d="
M794.126282,549.141724 
	C774.433838,553.409363 756.166260,551.782166 740.204956,539.010742 
	C725.869568,527.540344 720.497009,511.980286 721.482056,494.144257 
	C723.006775,466.534821 741.940491,450.244385 763.932373,446.540314 
	C789.814819,442.180969 817.102966,449.912598 828.265076,474.968353 
	C841.468689,504.606842 829.044312,539.987549 794.126282,549.141724 
M753.420105,521.020142 
	C761.619568,530.777344 772.572510,532.781006 784.127625,530.455688 
	C801.539062,526.951782 809.010620,514.934265 808.183655,495.102966 
	C807.506226,478.857056 796.705139,466.097137 779.013062,465.682373 
	C766.385620,465.386353 755.319336,468.814270 749.710999,481.060669 
	C743.547913,494.518494 744.175415,507.971985 753.420105,521.020142 
z"/>
<path fill="#FEFEFE" opacity="1.000000" stroke="none" 
	d="
M595.970215,475.000000 
	C595.970154,465.527924 595.970154,456.555847 595.970154,447.033875 
	C605.111084,447.033875 614.051575,446.779144 622.971252,447.101929 
	C632.895264,447.460999 642.946106,447.508881 652.677979,449.205627 
	C666.029419,451.533508 675.504395,462.289551 676.965088,474.682678 
	C678.805725,490.298950 672.737793,502.388336 659.734680,509.005524 
	C658.270569,509.750580 656.799561,510.481934 655.221558,511.274994 
	C664.102173,524.070068 672.912048,536.763367 682.099854,550.001038 
	C673.694946,550.001038 665.927551,550.143860 658.175049,549.868591 
	C656.787842,549.819397 655.037903,548.320984 654.175781,547.015869 
	C648.080078,537.788452 641.986877,528.548096 636.300415,519.067444 
	C634.169678,515.515015 631.929077,513.656128 627.675476,514.254028 
	C625.094666,514.616821 622.421265,514.320862 619.507935,514.320862 
	C619.507935,526.295654 619.507935,537.886414 619.507935,549.739380 
	C611.708801,549.739380 604.114624,549.739380 595.970215,549.739380 
	C595.970215,525.000671 595.970215,500.250336 595.970215,475.000000 
M653.062561,486.202087 
	C656.272644,476.647125 652.441467,468.815613 642.708496,467.136902 
	C635.140503,465.831573 627.310181,466.047119 619.423889,465.576416 
	C619.423889,476.178772 619.423889,485.898438 619.423889,495.989563 
	C626.081482,495.989563 632.582336,496.498199 638.962646,495.839539 
	C644.777222,495.239288 650.255737,493.054108 653.062561,486.202087 
z"/>
<path fill="#FDFDFD" opacity="1.000000" stroke="none" 
	d="
M381.000000,447.032410 
	C391.327179,447.032288 401.154327,447.032288 411.321655,447.032288 
	C411.321655,453.570374 411.321655,459.959167 411.321655,466.745056 
	C395.144409,466.745056 378.897919,466.745056 362.328094,466.745056 
	C362.328094,474.346466 362.328094,481.564850 362.328094,489.125366 
	C376.764282,489.125366 391.168793,489.125366 405.817474,489.125366 
	C405.817474,495.396606 405.817474,501.340851 405.817474,507.844055 
	C391.466431,507.844055 376.926605,507.844055 362.199860,507.844055 
	C362.199860,515.349976 362.199860,522.304260 362.199860,529.671326 
	C378.791718,529.671326 395.530334,529.671326 412.610474,529.671326 
	C412.610474,536.473022 412.610474,542.883301 412.610474,549.649170 
	C388.323792,549.649170 363.784058,549.649170 339.016815,549.649170 
	C339.016815,515.571106 339.016815,481.510834 339.016815,447.032501 
	C352.914459,447.032501 366.707245,447.032501 381.000000,447.032410 
z"/>
<path fill="#FFFFFF" opacity="1.000000" stroke="none" 
	d="
M288.000000,588.000061 
	C247.196884,588.000000 206.893753,588.000000 166.295959,588.000000 
	C166.295959,584.249939 166.295959,580.706055 166.295959,576.990295 
	C282.492462,576.990295 398.541168,576.990295 514.797241,576.990295 
	C514.797241,580.607422 514.797241,584.035522 514.797241,588.000122 
	C439.337372,588.000122 363.918701,588.000122 288.000000,588.000061 
z"/>
<path fill="#FEFEFE" opacity="1.000000" stroke="none" 
	d="
M460.225891,453.127502 
	C460.225800,451.001617 460.225800,449.355774 460.225800,447.369690 
	C488.771698,447.369690 517.134949,447.369690 545.746765,447.369690 
	C545.746765,453.740387 545.746765,460.137939 545.746765,466.942261 
	C535.581421,466.942261 525.510376,466.942261 515.077515,466.942261 
	C515.077515,494.738251 515.077515,522.133667 515.077515,549.763489 
	C507.305084,549.763489 499.899872,549.763489 492.109528,549.763489 
	C492.109528,522.308289 492.109528,494.914001 492.109528,466.999939 
	C481.359558,466.999939 470.976135,466.999939 460.226013,466.999939 
	C460.226013,462.195160 460.226013,457.901367 460.225891,453.127502 
z"/>
<path fill="#F9F9F9" opacity="1.000000" stroke="none" 
	d="
M690.357056,579.065186 
	C699.824829,576.870728 706.831970,581.682068 704.783142,589.051147 
	C703.882812,592.289368 700.975769,594.969604 699.116211,597.702759 
	C700.846069,599.370850 703.172546,601.614197 705.591492,603.946777 
	C706.164429,602.483398 706.801758,600.855530 707.479126,599.125488 
	C709.253662,599.896545 711.023926,600.665710 713.406189,601.700745 
	C708.487854,607.712097 710.318542,612.921692 716.387817,617.400085 
	C716.056824,617.722534 715.725769,618.044983 715.394775,618.367432 
	C711.880676,617.698303 708.366577,617.029236 703.375549,616.078857 
	C696.703613,619.913940 686.901978,619.099548 682.944031,613.275818 
	C679.320984,607.945190 680.822876,602.725647 687.741760,596.601746 
	C682.237488,588.243225 682.784973,583.969604 690.357056,579.065186 
M694.123535,602.923401 
	C691.589355,599.622131 690.198242,602.967163 689.516052,604.215759 
	C687.945923,607.089600 688.324768,610.530701 691.658813,611.631714 
	C694.410767,612.540527 697.701721,611.817383 702.119202,611.817383 
	C698.808533,608.120789 696.731567,605.801636 694.123535,602.923401 
M698.269714,586.252075 
	C696.499023,583.654297 693.949402,583.107727 692.241028,585.577454 
	C691.310242,586.923157 692.091248,589.642334 692.546692,591.640137 
	C692.680237,592.225769 695.064941,592.968567 695.197449,592.780212 
	C696.510681,590.914795 697.567200,588.868591 698.269714,586.252075 
z"/>
<path fill="#F9F9F9" opacity="1.000000" stroke="none" 
	d="
M564.326843,583.739624 
	C566.169922,591.206604 565.775330,592.360596 559.784546,597.443726 
	C565.114502,598.924011 567.114807,602.751160 566.747314,607.739014 
	C566.385193,612.654053 563.030273,616.112915 557.312866,616.943115 
	C551.473877,617.790955 545.520264,617.849854 539.274292,618.277527 
	C539.274292,604.994995 539.274292,592.299927 539.274292,579.062195 
	C545.153809,579.062195 551.265137,578.656677 557.274414,579.262695 
	C559.661743,579.503479 561.822937,581.986206 564.326843,583.739624 
M550.167542,600.550415 
	C548.799561,600.634521 547.431580,600.718628 545.995483,600.806885 
	C545.995483,602.984680 545.995544,604.631226 545.995544,606.277771 
	C545.995544,608.023621 545.995483,609.769470 545.995483,612.130005 
	C549.764648,611.688904 553.042908,611.877563 555.792847,610.762756 
	C557.371887,610.122620 559.062805,607.289429 558.923950,605.588928 
	C558.790405,603.953552 556.539307,602.260071 554.876099,601.071411 
	C553.947693,600.407837 552.322021,600.719971 550.167542,600.550415 
M545.996216,592.236755 
	C546.292847,593.094666 546.705200,594.721741 546.869019,594.697083 
	C550.235779,594.190674 553.694031,593.817139 556.844910,592.641846 
	C557.783569,592.291748 558.422485,589.471130 558.124512,588.000061 
	C557.885498,586.820068 556.124268,585.301941 554.858643,585.108032 
	C552.026245,584.674133 549.081726,584.972229 545.995789,584.972229 
	C545.995789,587.335083 545.995789,589.317017 545.996216,592.236755 
z"/>
<path fill="#FBFBFB" opacity="1.000000" stroke="none" 
	d="
M631.927856,576.965332 
	C632.939697,577.584717 633.933655,578.199707 633.938049,578.821716 
	C634.028137,591.743286 634.005981,604.665649 634.005981,618.798767 
	C631.106140,617.674500 628.949768,616.838562 625.960693,615.679688 
	C619.910950,619.422546 613.176758,619.304688 609.286133,614.604553 
	C604.767029,609.145081 604.764099,598.528748 609.280151,593.364563 
	C613.353088,588.707092 619.995178,588.165710 626.992493,592.435913 
	C626.992493,589.664062 626.992493,587.296814 626.992493,584.929626 
	C626.992493,582.458191 626.992493,579.986694 626.992493,576.964172 
	C628.618774,576.964172 630.033936,576.964172 631.927856,576.965332 
M614.590271,598.348206 
	C611.697021,604.972534 613.625549,611.229980 618.894592,611.980225 
	C622.025696,612.426025 624.829407,611.911011 626.116577,608.358765 
	C627.611877,604.231934 627.955383,600.103333 624.394531,597.045105 
	C621.400574,594.473755 617.985718,595.030212 614.590271,598.348206 
z"/>
<path fill="#FBFBFB" opacity="1.000000" stroke="none" 
	d="
M825.560486,614.335449 
	C821.460205,608.409790 820.863403,602.477722 823.913086,596.318726 
	C827.408752,589.259033 833.938782,587.692261 842.995483,591.836792 
	C842.995483,586.970764 842.995483,582.221985 842.995483,577.230103 
	C845.350403,577.230103 847.436646,577.230103 849.849731,577.230103 
	C849.849731,590.439941 849.849731,603.820374 849.849731,617.587830 
	C847.622986,617.477234 844.370361,620.118225 843.655273,614.736755 
	C837.639587,618.820923 831.635315,620.400513 825.560486,614.335449 
M836.534973,612.080261 
	C838.649109,610.576294 842.254822,609.317444 842.551086,607.514709 
	C843.084717,604.268005 842.217834,600.409058 840.735657,597.396423 
	C840.121277,596.147766 836.235596,595.662415 834.160889,596.164856 
	C830.505920,597.050110 829.154724,600.415161 829.397888,603.911011 
	C829.670837,607.834167 830.797852,611.535767 836.534973,612.080261 
z"/>
<path fill="#F9F9F9" opacity="1.000000" stroke="none" 
	d="
M572.718506,608.909668 
	C571.044312,600.314636 573.102051,594.421204 578.632019,591.100647 
	C583.885986,587.945862 591.267029,588.467285 595.852539,592.317200 
	C600.713989,596.398804 602.287659,602.877258 600.019470,609.471680 
	C598.087952,615.087280 593.706116,618.111938 587.124695,618.372253 
	C579.980469,618.654907 575.697876,615.920166 572.718506,608.909668 
M592.657715,599.126953 
	C590.146118,595.586426 586.937195,594.175903 582.855347,596.253601 
	C579.707764,597.855530 578.144104,602.902710 579.493774,606.725708 
	C580.860046,610.596069 583.461548,612.685974 587.758789,612.085449 
	C592.517395,611.420532 594.645325,606.415039 592.657715,599.126953 
z"/>
<path fill="#FBFBFB" opacity="1.000000" stroke="none" 
	d="
M657.204041,616.253479 
	C654.341919,620.405273 651.928528,624.460449 648.821533,627.886597 
	C647.703064,629.119934 644.916443,628.840515 642.473755,629.336182 
	C642.226807,627.041321 642.054016,625.435242 641.886719,623.880554 
	C648.996277,620.625854 649.728088,618.811096 647.069702,611.450134 
	C644.519104,604.387939 641.986938,597.319092 639.500183,590.402039 
	C645.406982,588.566101 648.424072,590.705688 649.506836,596.703125 
	C650.167175,600.360474 651.945007,603.816040 653.458191,608.021790 
	C655.094543,603.610046 657.055481,599.864319 657.819641,595.888489 
	C658.873779,590.404602 661.634155,588.799927 667.121338,590.499451 
	C663.891724,598.922302 660.635254,607.415344 657.204041,616.253479 
z"/>
<path fill="#F9F9F9" opacity="1.000000" stroke="none" 
	d="
M803.703796,589.581177 
	C811.868958,588.757080 815.826538,592.067749 815.983154,599.618530 
	C816.106445,605.564148 816.007935,611.514343 816.007935,617.675537 
	C813.586731,617.675537 811.527893,617.675537 808.990112,617.675537 
	C808.990112,612.474854 808.974731,607.368164 808.995483,602.261597 
	C809.009521,598.802979 808.329102,595.858643 804.015747,595.850403 
	C799.631470,595.841980 797.858521,598.274841 797.934998,602.496765 
	C798.024780,607.444519 797.955994,612.395081 797.955994,617.608154 
	C795.451050,617.608154 793.365601,617.608154 790.888306,617.608154 
	C790.888306,608.594910 790.888306,599.540710 790.888306,590.087830 
	C792.893555,591.245850 796.577454,587.125854 797.294922,592.489685 
	C799.285278,591.582092 801.310974,590.658447 803.703796,589.581177 
z"/>
<path fill="#FBFBFB" opacity="1.000000" stroke="none" 
	d="
M774.256653,589.439819 
	C781.646790,591.725586 784.193665,595.797852 783.875732,604.868408 
	C777.671997,604.868408 771.431335,604.868408 765.190735,604.868408 
	C764.848328,605.314941 764.505920,605.761475 764.163513,606.208008 
	C765.832336,608.128723 767.148315,610.720093 769.246826,611.823853 
	C773.048035,613.823364 776.587769,612.295471 779.544434,608.961243 
	C780.771973,610.282166 781.976746,611.578735 783.163635,612.855957 
	C778.236633,618.359741 770.438904,619.964905 764.755188,616.815369 
	C759.113220,613.688965 756.282654,605.987732 758.193665,598.963196 
	C760.067627,592.074890 765.397644,588.786682 774.256653,589.439819 
M769.915771,594.977905 
	C768.171021,596.340027 766.426270,597.702209 763.861389,599.704590 
	C769.223328,599.704590 773.059326,599.704590 777.139587,599.704590 
	C776.485291,595.608398 774.074158,594.623962 769.915771,594.977905 
z"/>
<path fill="#FBFBFB" opacity="1.000000" stroke="none" 
	d="
M867.040527,611.437378 
	C871.672119,613.568726 875.386841,612.734375 878.546753,608.906128 
	C879.848450,610.278748 881.062561,611.559021 882.259460,612.821167 
	C877.219482,618.427917 868.868896,620.018066 863.363708,616.602112 
	C857.477234,612.949524 855.012573,604.087341 857.957275,597.162048 
	C860.604980,590.935120 866.792114,587.856812 873.346008,589.505798 
	C880.438110,591.290039 883.449646,596.115601 882.681824,604.874207 
	C876.619202,604.874207 870.515076,604.874207 863.026489,604.874207 
	C864.599609,607.524719 865.670654,609.329285 867.040527,611.437378 
M875.981140,598.898865 
	C875.290955,595.679504 873.005920,594.253418 870.112976,595.033936 
	C867.795410,595.659180 865.784180,597.419800 863.636963,598.676636 
	C863.882935,599.030518 864.128845,599.384338 864.374756,599.738220 
	C868.172852,599.738220 871.970886,599.738220 875.981140,598.898865 
z"/>
<path fill="#FDFDFD" opacity="1.000000" stroke="none" 
	d="
M733.195557,579.000122 
	C740.303101,578.998413 746.927185,578.998413 753.774536,578.998413 
	C753.774536,581.063354 753.774536,582.809326 753.774536,584.997314 
	C748.719116,584.997314 743.643555,584.997314 738.291992,584.997314 
	C738.291992,588.668274 738.291992,591.910950 738.291992,595.483643 
	C742.718567,595.483643 747.130615,595.483643 751.767395,595.483643 
	C751.767395,597.704773 751.767395,599.606445 751.767395,601.874512 
	C747.279053,601.874512 742.857605,601.874512 738.065125,601.874512 
	C738.065125,607.301514 738.065125,612.390564 738.065125,617.666260 
	C735.624207,617.666260 733.562073,617.666260 730.999817,617.666260 
	C730.999817,605.315613 730.975708,593.052734 731.072632,580.790771 
	C731.077332,580.190125 732.141296,579.597900 733.195557,579.000122 
z"/>
<path fill="#F9F9F9" opacity="1.000000" stroke="none" 
	d="
M896.009766,614.763916 
	C895.761230,620.737244 891.585388,616.461060 889.324707,618.511353 
	C889.324707,608.598938 889.324707,599.405212 889.324707,590.139343 
	C891.544678,590.139343 893.653076,590.139343 895.765808,590.139343 
	C895.846436,591.128174 895.913086,591.945984 895.964966,592.582520 
	C898.651245,591.276184 901.391357,589.943665 904.694092,588.337585 
	C904.694092,591.155212 904.694092,593.204651 904.694092,595.306274 
	C897.030518,597.384644 896.009338,598.721313 896.009521,606.812073 
	C896.009583,609.305176 896.009705,611.798279 896.009766,614.763916 
z"/>
<path fill="#FBFBFB" opacity="1.000000" stroke="none" 
	d="
M915.778442,470.694397 
	C914.969421,470.757538 914.160461,470.820679 913.109741,470.514526 
	C913.020752,470.024017 913.173340,469.902802 913.571289,469.622437 
	C914.258911,469.896698 914.701233,470.330048 915.416870,470.744751 
	C915.690125,470.726074 915.778442,470.694366 915.778442,470.694397 
z"/>
<path fill="#FBFBFB" opacity="1.000000" stroke="none" 
	d="
M915.729553,470.709534 
	C915.545471,470.958588 915.321960,471.224152 915.098389,471.489685 
	C915.161926,471.305756 915.225464,471.121796 915.533691,470.816101 
	C915.778442,470.694366 915.690125,470.726074 915.729553,470.709534 
z"/>
<path fill="#010101" opacity="1.000000" stroke="none" 
	d="
M436.601074,365.578705 
	C466.277863,363.055542 495.492401,362.514252 524.840576,363.546600 
	C565.688293,364.983459 602.565979,379.523010 639.233032,395.395538 
	C653.234436,401.456543 667.324646,407.312378 682.371521,413.683960 
	C680.538696,413.835938 679.574463,413.999146 678.613037,413.983643 
	C636.968872,413.311981 595.318237,412.892517 553.682800,411.861572 
	C514.056213,410.880341 474.437592,409.451019 434.830750,407.841827 
	C413.064331,406.957489 391.278076,405.841400 369.598389,403.795319 
	C354.856659,402.404022 340.449402,398.622772 326.969025,392.071442 
	C325.789520,391.498230 324.229736,391.042847 323.641754,390.057983 
	C322.481110,388.113861 321.078491,385.741211 321.319092,383.730438 
	C321.485748,382.337463 324.107574,380.426056 325.850342,380.156769 
	C348.730713,376.621155 371.623016,373.135834 394.569427,370.064636 
	C408.377258,368.216614 422.284576,367.111786 436.601074,365.578705 
z"/>
<path fill="#010101" opacity="1.000000" stroke="none" 
	d="
M753.179077,520.751282 
	C744.175415,507.971985 743.547913,494.518494 749.710999,481.060669 
	C755.319336,468.814270 766.385620,465.386353 779.013062,465.682373 
	C796.705139,466.097137 807.506226,478.857056 808.183655,495.102966 
	C809.010620,514.934265 801.539062,526.951782 784.127625,530.455688 
	C772.572510,532.781006 761.619568,530.777344 753.179077,520.751282 
z"/>
<path fill="#040404" opacity="1.000000" stroke="none" 
	d="
M652.999512,486.598816 
	C650.255737,493.054108 644.777222,495.239288 638.962646,495.839539 
	C632.582336,496.498199 626.081482,495.989563 619.423889,495.989563 
	C619.423889,485.898438 619.423889,476.178772 619.423889,465.576416 
	C627.310181,466.047119 635.140503,465.831573 642.708496,467.136902 
	C652.441467,468.815613 656.272644,476.647125 652.999512,486.598816 
z"/>
<path fill="#080808" opacity="1.000000" stroke="none" 
	d="
M694.389038,603.203003 
	C696.731567,605.801636 698.808533,608.120789 702.119202,611.817383 
	C697.701721,611.817383 694.410767,612.540527 691.658813,611.631714 
	C688.324768,610.530701 687.945923,607.089600 689.516052,604.215759 
	C690.198242,602.967163 691.589355,599.622131 694.389038,603.203003 
z"/>
<path fill="#080808" opacity="1.000000" stroke="none" 
	d="
M698.483032,586.562866 
	C697.567200,588.868591 696.510681,590.914795 695.197449,592.780212 
	C695.064941,592.968567 692.680237,592.225769 692.546692,591.640137 
	C692.091248,589.642334 691.310242,586.923157 692.241028,585.577454 
	C693.949402,583.107727 696.499023,583.654297 698.483032,586.562866 
z"/>
<path fill="#080808" opacity="1.000000" stroke="none" 
	d="
M550.588989,600.571411 
	C552.322021,600.719971 553.947693,600.407837 554.876099,601.071411 
	C556.539307,602.260071 558.790405,603.953552 558.923950,605.588928 
	C559.062805,607.289429 557.371887,610.122620 555.792847,610.762756 
	C553.042908,611.877563 549.764648,611.688904 545.995483,612.130005 
	C545.995483,609.769470 545.995544,608.023621 545.995544,606.277771 
	C545.995544,604.631226 545.995483,602.984680 545.995483,600.806885 
	C547.431580,600.718628 548.799561,600.634521 550.588989,600.571411 
z"/>
<path fill="#080808" opacity="1.000000" stroke="none" 
	d="
M545.995972,591.767822 
	C545.995789,589.317017 545.995789,587.335083 545.995789,584.972229 
	C549.081726,584.972229 552.026245,584.674133 554.858643,585.108032 
	C556.124268,585.301941 557.885498,586.820068 558.124512,588.000061 
	C558.422485,589.471130 557.783569,592.291748 556.844910,592.641846 
	C553.694031,593.817139 550.235779,594.190674 546.869019,594.697083 
	C546.705200,594.721741 546.292847,593.094666 545.995972,591.767822 
z"/>
<path fill="#040404" opacity="1.000000" stroke="none" 
	d="
M614.815063,598.034180 
	C617.985718,595.030212 621.400574,594.473755 624.394531,597.045105 
	C627.955383,600.103333 627.611877,604.231934 626.116577,608.358765 
	C624.829407,611.911011 622.025696,612.426025 618.894592,611.980225 
	C613.625549,611.229980 611.697021,604.972534 614.815063,598.034180 
z"/>
<path fill="#040404" opacity="1.000000" stroke="none" 
	d="
M836.129639,612.063171 
	C830.797852,611.535767 829.670837,607.834167 829.397888,603.911011 
	C829.154724,600.415161 830.505920,597.050110 834.160889,596.164856 
	C836.235596,595.662415 840.121277,596.147766 840.735657,597.396423 
	C842.217834,600.409058 843.084717,604.268005 842.551086,607.514709 
	C842.254822,609.317444 838.649109,610.576294 836.129639,612.063171 
z"/>
<path fill="#080808" opacity="1.000000" stroke="none" 
	d="
M592.818115,599.477417 
	C594.645325,606.415039 592.517395,611.420532 587.758789,612.085449 
	C583.461548,612.685974 580.860046,610.596069 579.493774,606.725708 
	C578.144104,602.902710 579.707764,597.855530 582.855347,596.253601 
	C586.937195,594.175903 590.146118,595.586426 592.818115,599.477417 
z"/>
<path fill="#080808" opacity="1.000000" stroke="none" 
	d="
M770.322876,594.951294 
	C774.074158,594.623962 776.485291,595.608398 777.139587,599.704590 
	C773.059326,599.704590 769.223328,599.704590 763.861389,599.704590 
	C766.426270,597.702209 768.171021,596.340027 770.322876,594.951294 
z"/>
<path fill="#080808" opacity="1.000000" stroke="none" 
	d="
M875.875061,599.318542 
	C871.970886,599.738220 868.172852,599.738220 864.374756,599.738220 
	C864.128845,599.384338 863.882935,599.030518 863.636963,598.676636 
	C865.784180,597.419800 867.795410,595.659180 870.112976,595.033936 
	C873.005920,594.253418 875.290955,595.679504 875.875061,599.318542 
z"/>
</svg>